<svg width="36" height="36" viewBox="0 0 36 36" fill="none" xmlns="http://www.w3.org/2000/svg">
<path d="M12.4055 28.5798C11.8648 28.0194 11.8648 27.111 12.4055 26.5507L20.6572 18L12.4055 9.44933C11.8648 8.88901 11.8648 7.98055 12.4055 7.42024C12.9463 6.85992 13.823 6.85992 14.3637 7.42024L23.5945 16.9855C23.8541 17.2545 24 17.6195 24 18C24 18.3805 23.8541 18.7455 23.5945 19.0145L14.3637 28.5798C13.823 29.1401 12.9463 29.1401 12.4055 28.5798Z" fill="white"/>
<path d="M12.4055 28.5798C11.8648 28.0194 11.8648 27.111 12.4055 26.5507L20.6572 18L12.4055 9.44933C11.8648 8.88901 11.8648 7.98055 12.4055 7.42024C12.9463 6.85992 13.823 6.85992 14.3637 7.42024L23.5945 16.9855C23.8541 17.2545 24 17.6195 24 18C24 18.3805 23.8541 18.7455 23.5945 19.0145L14.3637 28.5798C13.823 29.1401 12.9463 29.1401 12.4055 28.5798Z" stroke="white"/>
</svg>
