<svg width="140" height="140" viewBox="0 0 140 140" fill="none" xmlns="http://www.w3.org/2000/svg">
<path d="M109.37 56.6392V52.529C109.37 29.9614 91.7434 11.6667 70 11.6667C48.2566 11.6667 30.6301 29.9614 30.6301 52.529V56.6392C30.6301 61.5718 29.2233 66.394 26.5872 70.4982L20.1271 80.5556C14.2265 89.742 18.7311 102.229 28.9938 105.134C55.841 112.733 84.159 112.733 111.006 105.134C121.269 102.229 125.774 89.742 119.873 80.5556L113.413 70.4982C110.777 66.394 109.37 61.5718 109.37 56.6392Z" stroke="black" stroke-width="6"/>
<path d="M43.75 110.833C47.571 121.029 57.881 128.333 70 128.333C82.119 128.333 92.429 121.029 96.25 110.833" stroke="black" stroke-width="6" stroke-linecap="round"/>
</svg>
