<svg width="140" height="140" viewBox="0 0 140 140" fill="none" xmlns="http://www.w3.org/2000/svg">
<path d="M113.75 43.75C113.75 41.4294 112.828 39.2038 111.187 37.5628C109.546 35.9219 107.321 35 105 35H83.125L113.75 87.5" stroke="black" stroke-width="6" stroke-linecap="round" stroke-linejoin="round"/>
<path d="M113.75 109.375C125.831 109.375 135.625 99.5812 135.625 87.5C135.625 75.4188 125.831 65.625 113.75 65.625C101.669 65.625 91.875 75.4188 91.875 87.5C91.875 99.5812 101.669 109.375 113.75 109.375Z" stroke="black" stroke-width="6" stroke-linecap="round" stroke-linejoin="round"/>
<path d="M26.25 109.375C38.3312 109.375 48.125 99.5812 48.125 87.5C48.125 75.4188 38.3312 65.625 26.25 65.625C14.1688 65.625 4.375 75.4188 4.375 87.5C4.375 99.5812 14.1688 109.375 26.25 109.375Z" stroke="black" stroke-width="6" stroke-linecap="round" stroke-linejoin="round"/>
<path d="M26.25 35H41.5625L72.1875 87.5" stroke="black" stroke-width="6" stroke-linecap="round" stroke-linejoin="round"/>
<path d="M93.0234 52.5H51.7891L26.25 87.5" stroke="black" stroke-width="6" stroke-linecap="round" stroke-linejoin="round"/>
</svg>
