<svg width="140" height="140" viewBox="0 0 140 140" fill="none" xmlns="http://www.w3.org/2000/svg">
<circle cx="70" cy="75.8333" r="17.5" stroke="black" stroke-width="6"/>
<path d="M57.0371 122.5H82.963C101.169 122.5 110.272 122.5 116.811 118.21C119.642 116.353 122.073 113.967 123.964 111.187C128.333 104.767 128.333 95.8295 128.333 77.9545C128.333 60.0796 128.333 51.1421 123.964 44.7218C122.073 41.9425 119.642 39.5561 116.811 37.699C112.609 34.9424 107.349 33.9572 99.2951 33.605C95.4518 33.605 92.1427 30.7456 91.389 27.0455C90.2584 21.4952 85.2948 17.5 79.5298 17.5H60.4704C54.7054 17.5 49.7418 21.4952 48.6112 27.0455C47.8574 30.7456 44.5484 33.605 40.7051 33.605C32.6512 33.9572 27.3908 34.9424 23.189 37.699C20.3581 39.5561 17.9276 41.9425 16.0361 44.7218C11.6667 51.1421 11.6667 60.0796 11.6667 77.9545C11.6667 95.8295 11.6667 104.767 16.0361 111.187C17.9276 113.967 20.3581 116.353 23.189 118.21C29.7281 122.5 38.8311 122.5 57.0371 122.5Z" stroke="black" stroke-width="6"/>
<path d="M110.833 58.3333H105" stroke="black" stroke-width="6" stroke-linecap="round"/>
</svg>
