<svg width="80" height="80" viewBox="0 0 80 80" fill="none" xmlns="http://www.w3.org/2000/svg">
<path d="M12.8793 54.8507C10.0195 43.4114 8.5896 37.6918 11.5924 33.8459C14.5951 30 20.4908 30 32.2822 30H47.7178C59.5092 30 65.4049 30 68.4076 33.8459C71.4104 37.6918 69.9805 43.4114 67.1207 54.8507C65.3018 62.1263 64.3923 65.7641 61.6797 67.8821C58.9671 70 55.2173 70 47.7178 70H32.2822C24.7827 70 21.0329 70 18.3203 67.8821C15.6077 65.7641 14.6982 62.1263 12.8793 54.8507Z" stroke="black" stroke-width="4"/>
<path d="M65 31.6667L62.632 22.9822C61.7189 19.6335 61.2624 17.9592 60.326 16.6983C59.3934 15.4425 58.1261 14.4745 56.6693 13.9051C55.2064 13.3334 53.4709 13.3334 50 13.3334M15 31.6667L17.368 22.9822C18.2811 19.6335 18.7376 17.9592 19.674 16.6983C20.6066 15.4425 21.8739 14.4745 23.3307 13.9051C24.7936 13.3334 26.5291 13.3334 30 13.3334" stroke="black" stroke-width="4"/>
<path d="M30 13.3333C30 11.4924 31.4924 10 33.3333 10H46.6667C48.5076 10 50 11.4924 50 13.3333C50 15.1743 48.5076 16.6667 46.6667 16.6667H33.3333C31.4924 16.6667 30 15.1743 30 13.3333Z" stroke="black" stroke-width="4"/>
<path d="M26.6667 43.3334V56.6667" stroke="black" stroke-width="4" stroke-linecap="round" stroke-linejoin="round"/>
<path d="M53.3333 43.3334V56.6667" stroke="black" stroke-width="4" stroke-linecap="round" stroke-linejoin="round"/>
<path d="M40 43.3334V56.6667" stroke="black" stroke-width="4" stroke-linecap="round" stroke-linejoin="round"/>
</svg>
