<svg width="140" height="140" viewBox="0 0 140 140" fill="none" xmlns="http://www.w3.org/2000/svg">
<path d="M81.6666 35H58.3333C50.424 35 43.9366 35 38.5533 35.3176C28.9636 35.8834 22.8779 37.4571 18.5008 41.8342C11.6666 48.6683 11.6666 59.6678 11.6666 81.6667C11.6666 103.666 11.6666 114.665 18.5008 121.499C25.335 128.333 36.3344 128.333 58.3333 128.333H81.6666C103.666 128.333 114.665 128.333 121.499 121.499C128.333 114.665 128.333 103.666 128.333 81.6667C128.333 59.6678 128.333 48.6683 121.499 41.8342C117.122 37.4571 111.036 35.8834 101.447 35.3176C96.0633 35 89.5759 35 81.6666 35Z" stroke="black" stroke-width="6"/>
<path d="M38.5547 35.3176C43.3581 35.1959 47.5956 31.8203 49.2301 27.3019C49.2804 27.1629 49.3319 27.0083 49.435 26.699L49.5847 26.25C49.8307 25.5117 49.9538 25.1425 50.0855 24.815C51.7666 20.6332 55.7061 17.7938 60.2049 17.5213C60.5572 17.5 60.9464 17.5 61.7246 17.5H78.278C79.0563 17.5 79.4454 17.5 79.7977 17.5213C84.2966 17.7938 88.236 20.6332 89.9172 24.815C90.0488 25.1425 90.1719 25.5117 90.418 26.25L90.5677 26.699C90.6706 27.0078 90.7223 27.163 90.7726 27.3019C92.407 31.8203 96.6445 35.1959 101.448 35.3176" stroke="black" stroke-width="6"/>
<path d="M126.36 50.8651C108.803 62.2774 100.024 67.9835 90.7697 70.8589C77.2424 75.0617 62.7584 75.0617 49.2312 70.8588C39.9766 67.9835 31.1979 62.2774 13.6405 50.8651" stroke="black" stroke-width="6" stroke-linecap="round"/>
<path d="M46.6666 64.1667V75.8334" stroke="black" stroke-width="6" stroke-linecap="round"/>
<path d="M93.3334 64.1667V75.8334" stroke="black" stroke-width="6" stroke-linecap="round"/>
</svg>
