<svg width="140" height="140" viewBox="0 0 140 140" fill="none" xmlns="http://www.w3.org/2000/svg">
<path d="M126.053 79.1091L127.39 64.9035C128.44 53.7466 128.965 48.1681 127.056 45.8621C126.024 44.6147 124.62 43.8504 123.118 43.7185C120.344 43.4748 116.859 47.4419 109.889 55.3763C106.285 59.4796 104.483 61.5312 102.472 61.8489C101.358 62.025 100.223 61.844 99.1944 61.3263C97.3379 60.3921 96.1002 57.8557 93.6247 52.783L80.5763 26.045C75.8985 16.4595 73.5596 11.6667 70.0001 11.6667C66.4406 11.6667 64.1017 16.4595 59.4239 26.045L46.3755 52.783C43.9 57.8557 42.6622 60.3921 40.8058 61.3263C39.7771 61.844 38.6421 62.025 37.5281 61.8489C35.5176 61.5312 33.7154 59.4796 30.111 55.3763C23.1414 47.4419 19.6566 43.4748 16.8817 43.7185C15.3806 43.8504 13.9766 44.6147 12.9442 45.8621C11.0356 48.1681 11.5606 53.7466 12.6106 64.9035L13.9476 79.1091C16.1506 102.516 17.252 114.219 24.1506 121.276C31.0492 128.333 41.3885 128.333 62.0672 128.333H77.933C98.6116 128.333 108.951 128.333 115.85 121.276C122.748 114.219 123.85 102.516 126.053 79.1091Z" stroke="black" stroke-width="6"/>
<path d="M65.018 73.0489C67.2347 69.0724 68.343 67.0842 70 67.0842C71.657 67.0842 72.7653 69.0724 74.982 73.0489L75.5554 74.0776C76.1853 75.2076 76.5003 75.7726 76.9914 76.1454C77.4824 76.5182 78.094 76.6566 79.3172 76.9333L80.4308 77.1853C84.7352 78.1592 86.8875 78.6462 87.3995 80.2928C87.9116 81.9394 86.4443 83.6551 83.5098 87.0866L82.7506 87.9744C81.9168 88.9495 81.4998 89.4371 81.3122 90.0402C81.1247 90.6434 81.1877 91.2939 81.3138 92.5949L81.4286 93.7794C81.8722 98.3578 82.094 100.647 80.7535 101.665C79.4129 102.682 77.3978 101.754 73.3676 99.8988L72.3249 99.4187C71.1796 98.8914 70.607 98.6277 70 98.6277C69.393 98.6277 68.8204 98.8914 67.6751 99.4187L66.6324 99.8988C62.6022 101.754 60.5871 102.682 59.2465 101.665C57.906 100.647 58.1278 98.3578 58.5714 93.7794L58.6862 92.595C58.8123 91.2939 58.8753 90.6434 58.6878 90.0402C58.5002 89.4371 58.0832 88.9495 57.2494 87.9744L56.4902 87.0866C53.5557 83.6551 52.0884 81.9394 52.6005 80.2928C53.1125 78.6462 55.2647 78.1592 59.5692 77.1853L60.6828 76.9333C61.906 76.6566 62.5176 76.5182 63.0087 76.1454C63.4997 75.7726 63.8147 75.2076 64.4446 74.0776L65.018 73.0489Z" stroke="black" stroke-width="6"/>
</svg>
