<svg width="140" height="140" viewBox="0 0 140 140" fill="none" xmlns="http://www.w3.org/2000/svg">
<path d="M23.3333 35V110.833C23.3333 120.498 31.1683 128.333 40.8333 128.333H99.1666C108.832 128.333 116.667 120.498 116.667 110.833V52.5C116.667 42.835 108.832 35 99.1666 35H23.3333ZM23.3333 35V29.1667" stroke="black" stroke-width="6"/>
<path d="M105 35V38H108V35H105ZM91.6833 13.569L91.2591 10.5992L91.6833 13.569ZM28.6976 22.567L28.2733 19.5972H28.2733L28.6976 22.567ZM29.5811 38H105V32H29.5811V38ZM108 35V25.1184H102V35H108ZM91.2591 10.5992L28.2733 19.5972L29.1218 25.5369L92.1076 16.5389L91.2591 10.5992ZM28.2733 19.5972C23.7173 20.248 20.3333 24.1499 20.3333 28.7521H26.3333C26.3333 27.1358 27.5218 25.7654 29.1218 25.5369L28.2733 19.5972ZM108 25.1184C108 16.1931 100.095 9.33694 91.2591 10.5992L92.1076 16.5389C97.3287 15.793 102 19.8443 102 25.1184H108ZM29.5811 32C27.7874 32 26.3333 30.5459 26.3333 28.7521H20.3333C20.3333 33.8596 24.4737 38 29.5811 38V32Z" fill="black"/>
<path d="M46.6667 70H93.3334" stroke="black" stroke-width="6" stroke-linecap="round"/>
<path d="M46.6667 90.4167H78.7501" stroke="black" stroke-width="6" stroke-linecap="round"/>
</svg>
