<svg width="140" height="140" viewBox="0 0 140 140" fill="none" xmlns="http://www.w3.org/2000/svg">
<path d="M131.633 66.6094L118.125 73.336L100.625 39.8672L114.297 33.0313C115.313 32.5134 116.493 32.4182 117.578 32.7665C118.664 33.1148 119.569 33.8784 120.094 34.8907L133.547 60.6485C133.82 61.1641 133.987 61.729 134.038 62.3101C134.089 62.8912 134.024 63.4767 133.845 64.0321C133.667 64.5875 133.379 65.1016 132.999 65.5442C132.619 65.9868 132.155 66.349 131.633 66.6094V66.6094Z" stroke="black" stroke-width="6" stroke-linecap="round" stroke-linejoin="round"/>
<path d="M21.875 72.7891L8.36723 66.0079C7.84713 65.753 7.38359 65.3961 7.00418 64.9585C6.62477 64.5208 6.33724 64.0114 6.15867 63.4604C5.98011 62.9094 5.91416 62.3281 5.96475 61.7511C6.01535 61.1741 6.18144 60.6132 6.45317 60.1016L19.9063 34.3438C20.4326 33.3323 21.333 32.5662 22.4157 32.2086C23.4985 31.8511 24.678 31.9305 25.7032 32.4298L39.375 39.2657L21.875 72.7891Z" stroke="black" stroke-width="6" stroke-linecap="round" stroke-linejoin="round"/>
<path d="M118.125 73.3359L109.375 83.6172L89.25 103.742C88.7015 104.255 88.0369 104.627 87.3131 104.827C86.5893 105.027 85.8278 105.049 85.0938 104.891L53.375 96.9609C52.7956 96.7994 52.2557 96.5202 51.7891 96.1406L21.875 72.7891" stroke="black" stroke-width="6" stroke-linecap="round" stroke-linejoin="round"/>
<path d="M109.375 83.6172L85.3125 66.1172L78.3125 71.3672C75.2798 73.6307 71.5968 74.8536 67.8125 74.8536C64.0282 74.8536 60.3452 73.6307 57.3125 71.3672L54.3594 69.125C53.86 68.7454 53.4469 68.264 53.1476 67.7127C52.8482 67.1614 52.6693 66.5529 52.6228 65.9273C52.5763 65.3017 52.6631 64.6734 52.8777 64.0839C53.0922 63.4944 53.4295 62.9572 53.8672 62.5078L75.3047 41.125C75.7074 40.7243 76.1852 40.407 76.7107 40.1911C77.2362 39.9753 77.7991 39.8652 78.3672 39.8672H100.625" stroke="black" stroke-width="6" stroke-linecap="round" stroke-linejoin="round"/>
<path d="M39.7031 39.2657L67.7578 31.0626C68.7547 30.7767 69.8206 30.8542 70.7656 31.2813L89.6875 39.8673" stroke="black" stroke-width="6" stroke-linecap="round" stroke-linejoin="round"/>
<path d="M61.25 116.43L44.7891 112.273C44.1183 112.122 43.4972 111.802 42.9844 111.344L30.625 100.625" stroke="black" stroke-width="6" stroke-linecap="round" stroke-linejoin="round"/>
</svg>
