<svg width="110" height="110" viewBox="0 0 110 110" fill="none" xmlns="http://www.w3.org/2000/svg">
<path fill-rule="evenodd" clip-rule="evenodd" d="M81.383 41.3023C81.2047 41.3738 81.1336 41.5131 81.1702 41.7205C81.2409 55.2095 81.17 68.6632 80.9575 82.0817C80.8866 68.4181 80.9575 54.7553 81.1702 41.0931C81.2994 41.1191 81.3702 41.1887 81.383 41.3023Z" fill="white"/>
<path fill-rule="evenodd" clip-rule="evenodd" d="M76.0638 35.865C75.9325 35.8418 75.8262 35.7721 75.7447 35.6559C75.6383 50.9917 75.6028 66.3275 75.6383 81.6635C75.6383 81.8726 75.6383 82.0817 75.6383 82.2909C75 82.2909 74.3617 82.2909 73.7234 82.2909C73.7234 76.9232 73.7234 71.5558 73.7234 66.1882C73.9357 71.45 74.0066 76.748 73.9362 82.0817C74.4325 82.0817 74.9291 82.0817 75.4255 82.0817C75.4962 66.5567 75.4251 51.0467 75.2128 35.5513C75.7662 35.0289 76.05 35.1335 76.0638 35.865Z" fill="#C2C2C4"/>
<path fill-rule="evenodd" clip-rule="evenodd" d="M81.383 41.3022C82.9358 42.7237 84.4606 44.1876 85.9575 45.6939C86.0638 57.8926 86.0994 70.0917 86.0638 82.2908C85.8866 70.2663 85.7802 58.2069 85.7447 46.1121C85.7079 58.2126 85.6015 70.3069 85.4255 82.3954C85.5113 82.7034 85.6532 82.9822 85.8511 83.2319C85.6017 83.3195 85.3889 83.4588 85.2128 83.6502C85.4141 84.3074 85.4141 84.9348 85.2128 85.5323C84.5353 85.3884 83.8615 85.4233 83.1915 85.6368C83.0851 85.5323 82.9787 85.4277 82.8723 85.3232C83.13 85.0904 83.13 84.8464 82.8723 84.5912C83.0587 84.4342 83.2715 84.3296 83.5106 84.2775C83.2715 84.2255 83.0587 84.1209 82.8723 83.9638C83.3385 83.6067 83.4094 83.1884 83.0851 82.7091C83.7847 81.3048 83.3592 80.8866 81.8085 81.4543C81.7021 81.6635 81.5958 81.8726 81.4894 82.0817C81.3126 68.7178 81.3481 55.3687 81.5958 42.0342C81.48 41.8842 81.3381 41.7797 81.1702 41.7205C81.1336 41.513 81.2047 41.3738 81.383 41.3022Z" fill="white"/>
<path fill-rule="evenodd" clip-rule="evenodd" d="M76.0639 35.865C76.8441 36.7015 77.6241 37.538 78.4043 38.3745C78.4751 52.8048 78.4043 67.2345 78.1915 81.6635C77.8268 81.4316 77.6849 81.5711 77.766 82.0817C76.9868 82.1792 76.2777 82.0397 75.6383 81.6635C75.6028 66.3275 75.6383 50.9917 75.7447 35.6559C75.8262 35.7722 75.9326 35.8418 76.0639 35.865Z" fill="white"/>
<path fill-rule="evenodd" clip-rule="evenodd" d="M79.2553 31.4734C79.3708 31.4859 79.4417 31.5556 79.4681 31.6825C77.6296 31.8912 75.7855 31.9609 73.9362 31.8916C74.007 42.07 73.9362 52.2475 73.7234 62.424C73.5942 62.398 73.5234 62.3284 73.5106 62.2148C73.7232 52.0729 73.794 41.8954 73.7234 31.6825C75.6062 31.7507 77.4502 31.6811 79.2553 31.4734Z" fill="#B4B4B6"/>
<path fill-rule="evenodd" clip-rule="evenodd" d="M29.4681 31.4734C31.2021 31.6811 32.9751 31.7507 34.7872 31.6825C34.7168 36.1802 34.7879 40.6414 35 45.0665C34.9398 45.2315 34.8334 45.371 34.6808 45.4848C34.5745 40.9543 34.5389 36.4232 34.5745 31.8916C32.7957 31.9609 31.0228 31.8912 29.2553 31.6825C29.2817 31.5556 29.3525 31.4859 29.4681 31.4734Z" fill="#ACACAC"/>
<path fill-rule="evenodd" clip-rule="evenodd" d="M16.7021 66.3973C18.4752 66.5368 20.2483 66.6761 22.0213 66.8156C21.9504 66.8156 21.8794 66.8156 21.8085 66.8156C20.0298 66.8848 18.2568 66.8152 16.4894 66.6065C16.5157 66.4795 16.5866 66.4099 16.7021 66.3973Z" fill="#787779"/>
<path fill-rule="evenodd" clip-rule="evenodd" d="M21.8085 66.8156C21.8794 66.8156 21.9505 66.8156 22.0213 66.8156C22.0213 71.974 22.0213 77.1323 22.0213 82.2908C20.3901 82.2908 18.7589 82.2908 17.1277 82.2908C18.6485 82.0834 20.2087 82.0137 21.8085 82.0817C21.8085 76.9931 21.8085 71.9042 21.8085 66.8156Z" fill="white"/>
<path fill-rule="evenodd" clip-rule="evenodd" d="M78.8298 38.3745C79.0387 39.0985 79.1096 39.8654 79.0425 40.6749C79.6847 40.6404 80.323 40.6753 80.9574 40.7795C80.7451 54.532 80.6742 68.2995 80.7447 82.0817C80.1064 82.0817 79.4681 82.0817 78.8298 82.0817C78.8298 67.5126 78.8298 52.9437 78.8298 38.3745Z" fill="#303030"/>
<path fill-rule="evenodd" clip-rule="evenodd" d="M79.2553 31.4734C77.4502 31.681 75.6062 31.7507 73.7234 31.6825C73.7941 41.8953 73.7232 52.0728 73.5107 62.2148C71.8217 60.6595 70.1549 59.0562 68.5107 57.4049C68.4398 47.9246 68.3687 38.4441 68.2979 28.9639C68.1473 28.7796 67.9698 28.6403 67.766 28.5456C63.3081 24.1991 58.8045 19.8771 54.2553 15.5798C49.57 20.0108 44.9247 24.4723 40.3192 28.9639C40.0366 33.6002 40.0366 38.2708 40.3192 42.9753C40.4483 42.9493 40.5192 42.8797 40.5319 42.7661C42.0136 41.205 43.5385 39.6715 45.1064 38.1654C52.2709 45.0331 59.3985 51.9342 66.4894 58.8688C68.8166 61.0514 71.1217 63.2822 73.4043 65.5608C73.5134 65.7756 73.6198 65.9847 73.7234 66.1882C73.7234 71.5558 73.7234 76.9232 73.7234 82.2908C74.3617 82.2908 75 82.2908 75.6383 82.2908C75.6383 82.0817 75.6383 81.8726 75.6383 81.6635C76.2777 82.0397 76.9868 82.1792 77.766 82.0817C77.6849 81.571 77.8268 81.4316 78.1915 81.6635C78.4043 67.2344 78.4751 52.8048 78.4043 38.3745C78.6168 52.9779 78.6879 67.6167 78.617 82.2908C79.4407 82.3567 80.2209 82.2871 80.9575 82.0817C81.17 68.6632 81.2409 55.2095 81.1702 41.7205C81.3381 41.7797 81.48 41.8843 81.5958 42.0342C81.3481 55.3687 81.3126 68.7178 81.4894 82.0817C81.5958 81.8726 81.7021 81.6635 81.8085 81.4543C83.3592 80.8866 83.7847 81.3048 83.0851 82.7091C83.4094 83.1884 83.3385 83.6067 82.8724 83.9639C83.0587 84.1209 83.2715 84.2255 83.5107 84.2775C83.2715 84.3296 83.0587 84.4342 82.8724 84.5912C83.13 84.8464 83.13 85.0904 82.8724 85.3232C82.9787 85.4277 83.0851 85.5323 83.1915 85.6369C83.8615 85.4233 84.5353 85.3884 85.2128 85.5323C85.4141 84.9348 85.4141 84.3074 85.2128 83.6502C85.389 83.4588 85.6017 83.3195 85.8511 83.2319C85.6532 82.9822 85.5113 82.7035 85.4256 82.3954C85.6015 70.3069 85.7079 58.2126 85.7447 46.1121C85.7802 58.2069 85.8866 70.2663 86.0639 82.2908C88.1217 82.2561 90.1785 82.2908 92.2341 82.3954C94.0436 83.9998 95.8166 85.6379 97.5532 87.3099C68.9007 87.5886 40.2483 87.5886 11.5958 87.3099C13.3869 85.5482 15.2309 83.8752 17.1277 82.2908C18.7589 82.2908 20.3901 82.2908 22.0213 82.2908C22.0213 77.1324 22.0213 71.9741 22.0213 66.8156C20.2483 66.6761 18.4752 66.5368 16.7021 66.3973C23.533 59.7879 30.3415 53.1308 37.1277 46.4258C37.3404 46.2863 37.5532 46.2863 37.766 46.4258C39.2273 47.8972 40.7166 49.3262 42.2341 50.7129C47.607 55.9239 52.997 61.152 58.4043 66.3973C56.6313 66.5368 54.8581 66.6761 53.0851 66.8156C53.0851 71.9741 53.0851 77.1324 53.0851 82.2908C53.5107 82.2908 53.9362 82.2908 54.3617 82.2908C54.3617 79.2935 54.3617 76.2959 54.3617 73.2985C55.4256 73.2985 56.4894 73.2985 57.5532 73.2985C57.5532 76.2959 57.5532 79.2935 57.5532 82.2908C58.5462 82.2908 59.539 82.2908 60.5319 82.2908C60.5319 79.2935 60.5319 76.2959 60.5319 73.2985C62.0921 73.2985 63.6526 73.2985 65.2128 73.2985C65.2128 76.2959 65.2128 79.2935 65.2128 82.2908C66.2766 82.2908 67.3404 82.2908 68.4043 82.2908C68.4398 77.6198 68.4043 72.9494 68.2979 68.2794C60.6683 60.9893 53.1151 53.6352 45.6383 46.2167C44.7413 46.4288 44.0321 46.9516 43.5107 47.7851C43.3143 47.9531 43.1015 47.988 42.8724 47.8897C41.1247 46.067 39.2809 44.3593 37.3404 42.7661C36.5945 43.5819 35.8143 44.3488 35 45.0665C34.7879 40.6414 34.7168 36.1801 34.7873 31.6825C32.9751 31.7507 31.2021 31.681 29.4681 31.4734C32.5943 28.4701 35.7149 25.4727 38.8298 22.481C40.3192 21.1566 41.7377 19.7623 43.0851 18.2985C46.7764 14.7052 50.4998 11.15 54.2553 7.63306C62.48 15.6821 70.8134 23.6289 79.2553 31.4734Z" fill="white"/>
<path fill-rule="evenodd" clip-rule="evenodd" d="M27.5532 63.6787C27.5532 69.813 27.5532 75.9475 27.5532 82.0818C34.2198 82.0818 40.8866 82.0818 47.5532 82.0818C47.5532 76.0171 47.5532 69.9525 47.5532 63.8878C47.7655 69.9864 47.8364 76.1206 47.7659 82.2909C40.9574 82.2909 34.1489 82.2909 27.3404 82.2909C27.27 76.051 27.3408 69.8469 27.5532 63.6787Z" fill="#BABABA"/>
<path fill-rule="evenodd" clip-rule="evenodd" d="M58.4042 66.3973C58.5198 66.4099 58.5906 66.4795 58.617 66.6065C56.7785 66.8152 54.9344 66.8848 53.0851 66.8156C54.8581 66.6761 56.6313 66.5368 58.4042 66.3973Z" fill="#838385"/>
<path fill-rule="evenodd" clip-rule="evenodd" d="M47.5532 63.8878C47.5532 69.9525 47.5532 76.0171 47.5532 82.0818C40.8866 82.0818 34.2198 82.0818 27.5532 82.0818C27.5532 75.9475 27.5532 69.813 27.5532 63.6787C30.6819 60.3595 33.9798 57.2226 37.4468 54.2681C40.9617 57.3071 44.3305 60.5136 47.5532 63.8878Z" fill="#303030"/>
<path fill-rule="evenodd" clip-rule="evenodd" d="M42.1277 69.2206C42.1277 70.4753 42.1277 71.7301 42.1277 72.9848C40.8511 72.9848 39.5745 72.9848 38.2979 72.9848C38.2979 71.7301 38.2979 70.4753 38.2979 69.2206C39.5745 69.2206 40.8511 69.2206 42.1277 69.2206Z" fill="white"/>
<path fill-rule="evenodd" clip-rule="evenodd" d="M36.383 64.4106C36.383 65.6654 36.383 66.9202 36.383 68.1749C35.1064 68.1749 33.8298 68.1749 32.5532 68.1749C32.5532 66.9202 32.5532 65.6654 32.5532 64.4106C33.8298 64.4106 35.1064 64.4106 36.383 64.4106Z" fill="white"/>
<path fill-rule="evenodd" clip-rule="evenodd" d="M42.1277 64.4106C42.1277 65.6654 42.1277 66.9202 42.1277 68.1749C40.8511 68.1749 39.5745 68.1749 38.2979 68.1749C38.2979 66.9202 38.2979 65.6654 38.2979 64.4106C39.5745 64.4106 40.8511 64.4106 42.1277 64.4106Z" fill="white"/>
<path fill-rule="evenodd" clip-rule="evenodd" d="M36.383 69.2206C36.383 70.4753 36.383 71.7301 36.383 72.9848C35.1064 72.9848 33.8298 72.9848 32.5532 72.9848C32.5532 71.7301 32.5532 70.4753 32.5532 69.2206C33.8298 69.2206 35.1064 69.2206 36.383 69.2206Z" fill="white"/>
<path fill-rule="evenodd" clip-rule="evenodd" d="M57.5532 73.2985C57.7651 76.1892 57.836 79.117 57.766 82.0817C58.6171 82.0817 59.4681 82.0817 60.3192 82.0817C60.2492 79.117 60.32 76.1892 60.5319 73.2985C60.5319 76.2959 60.5319 79.2935 60.5319 82.2909C59.539 82.2909 58.5462 82.2909 57.5532 82.2909C57.5532 79.2935 57.5532 76.2959 57.5532 73.2985Z" fill="white"/>
<path fill-rule="evenodd" clip-rule="evenodd" d="M54.7873 73.5076C55.6383 73.5076 56.4894 73.5076 57.3404 73.5076C57.4428 76.4684 57.3364 79.3961 57.0213 82.2908C56.8043 81.9999 56.627 81.6863 56.4894 81.3498C55.8864 81.3404 55.3545 81.166 54.8936 80.827C54.7873 78.3881 54.7517 75.9483 54.7873 73.5076Z" fill="white"/>
<path fill-rule="evenodd" clip-rule="evenodd" d="M40.3192 28.9639C40.2487 33.6008 40.3198 38.2016 40.5319 42.7661C40.5192 42.8797 40.4483 42.9493 40.3192 42.9753C40.0366 38.2708 40.0366 33.6002 40.3192 28.9639Z" fill="#9B9A9A"/>
<path fill-rule="evenodd" clip-rule="evenodd" d="M67.766 28.5456C67.7315 28.9695 67.767 29.3878 67.8723 29.8004C67.9432 29.7307 68.0143 29.6609 68.0851 29.5912C68.227 38.7928 68.227 47.9943 68.0851 57.1958C67.4974 57.7374 66.9655 58.295 66.4894 58.8688C59.3985 51.9342 52.2708 45.0331 45.1064 38.1654C43.5385 39.6715 42.0136 41.205 40.5319 42.7661C40.3198 38.2016 40.2487 33.6008 40.3191 28.9639C44.9247 24.4723 49.57 20.0108 54.2553 15.5798C58.8045 19.8771 63.3081 24.1991 67.766 28.5456Z" fill="#303030"/>
<path fill-rule="evenodd" clip-rule="evenodd" d="M55.4255 24.5723C58.9481 26.0705 59.8345 28.5103 58.0851 31.8917C56.1396 33.8857 53.9055 34.269 51.383 33.0419C49.4919 31.422 48.96 29.4353 49.7872 27.0818C50.2947 25.9904 51.1102 25.2235 52.234 24.7814C53.29 24.6237 54.3538 24.5541 55.4255 24.5723Z" fill="white"/>
<path fill-rule="evenodd" clip-rule="evenodd" d="M55.4256 24.5722C54.3539 24.554 53.29 24.6237 52.2341 24.7813C52.8056 24.4695 53.4439 24.3303 54.149 24.3631C54.6162 24.3641 55.0417 24.4338 55.4256 24.5722Z" fill="white"/>
<path fill-rule="evenodd" clip-rule="evenodd" d="M11.5958 87.3099C40.2483 87.5887 68.9007 87.5887 97.5532 87.3099C97.6687 87.3225 97.7396 87.3921 97.766 87.5191C97.4372 87.7181 97.0826 87.7878 96.7021 87.7282C68.3334 87.7282 39.9645 87.7282 11.5958 87.7282C11.3121 87.5887 11.3121 87.4494 11.5958 87.3099Z" fill="#949595"/>
<path fill-rule="evenodd" clip-rule="evenodd" d="M68.1915 91.0742C69.0198 91.9268 69.0198 92.7633 68.1915 93.5837C59.0426 93.5837 49.8936 93.5837 40.7447 93.5837C39.8936 92.7472 39.8936 91.9107 40.7447 91.0742C49.8936 90.7954 59.0426 90.7954 68.1915 91.0742Z" fill="white"/>
</svg>
