<svg width="80" height="80" viewBox="0 0 80 80" fill="none" xmlns="http://www.w3.org/2000/svg">
<path d="M52.2692 48.6229C63.9026 48.6229 73.3333 39.2306 73.3333 27.6447C73.3333 16.0588 63.9026 6.66663 52.2692 6.66663C40.6357 6.66663 31.205 16.0588 31.205 27.6447C31.205 33.0112 33.6543 36.9141 33.6543 36.9141L8.18136 62.283C7.03834 63.4214 5.43812 66.3811 8.18136 69.1131L11.1205 72.0403C12.2635 73.016 15.1373 74.382 17.4887 72.0403L20.9177 68.6252C24.3468 72.0403 28.2657 70.0888 29.7353 68.1374C32.1846 64.7223 29.2454 61.3073 29.2454 61.3073L30.2251 60.3316C34.9278 65.0151 39.0427 62.283 40.5123 60.3316C42.9616 56.9165 40.5123 53.5015 40.5123 53.5015C39.5326 51.55 37.5732 51.55 40.0224 49.1108L42.9617 46.1835C45.3131 48.135 50.1464 48.6229 52.2692 48.6229Z" stroke="black" stroke-width="4" stroke-linejoin="round"/>
<path d="M59.617 27.6451C59.617 31.6867 56.3272 34.963 52.269 34.963C48.2109 34.963 44.9211 31.6867 44.9211 27.6451C44.9211 23.6035 48.2109 20.3271 52.269 20.3271C56.3272 20.3271 59.617 23.6035 59.617 27.6451Z" stroke="#1C274C" stroke-width="4"/>
</svg>
