<svg width="140" height="140" viewBox="0 0 140 140" fill="none" xmlns="http://www.w3.org/2000/svg">
<path d="M75.1334 16.8C75.1334 16.8 87.9668 17.9667 104.3 34.3C120.633 50.6333 121.8 63.4667 121.8 63.4667" stroke="black" stroke-width="6" stroke-linecap="round"/>
<path d="M76.3411 37.4246C76.3411 37.4246 82.1158 39.0745 90.7778 47.7366C99.4399 56.3987 101.09 62.1734 101.09 62.1734" stroke="black" stroke-width="6" stroke-linecap="round"/>
<path d="M52.0193 36.1444L55.8052 42.9282C59.2218 49.0501 57.8503 57.0811 52.4692 62.4622C52.4692 62.4623 52.4692 62.4623 52.4692 62.4623C52.4691 62.4624 45.9422 68.9895 57.7764 80.8237C69.6098 92.6571 76.137 86.1318 76.1379 86.1309C76.1379 86.1309 76.1379 86.1309 76.1379 86.1309C81.519 80.7498 89.55 79.3783 95.672 82.7949L102.456 86.5808C111.7 91.7399 112.792 104.704 104.666 112.83C99.7837 117.712 93.8024 121.511 87.1904 121.762C76.0596 122.184 57.1567 119.367 38.195 100.405C19.2333 81.4434 16.4163 62.5405 16.8383 51.4097C17.0889 44.7977 20.8881 38.8164 25.7706 33.9339C33.8961 25.8084 46.8602 26.9001 52.0193 36.1444Z" stroke="black" stroke-width="6" stroke-linecap="round"/>
</svg>
