<svg width="140" height="140" viewBox="0 0 140 140" fill="none" xmlns="http://www.w3.org/2000/svg">
<path d="M17.5 60.7638C17.5 42.1113 17.5 32.785 19.7022 29.6474C21.9043 26.5098 30.6736 23.5081 48.212 17.5046L51.5534 16.3609C60.6957 13.2314 65.2669 11.6667 70 11.6667C74.7331 11.6667 79.3043 13.2314 88.4466 16.3609L91.788 17.5046C109.326 23.5081 118.096 26.5098 120.298 29.6474C122.5 32.785 122.5 42.1113 122.5 60.7638C122.5 63.5813 122.5 66.6366 122.5 69.9496C122.5 102.838 97.7727 118.799 82.2584 125.576C78.0499 127.414 75.9457 128.333 70 128.333C64.0543 128.333 61.9501 127.414 57.7416 125.576C42.2273 118.799 17.5 102.838 17.5 69.9496C17.5 66.6366 17.5 63.5813 17.5 60.7638Z" stroke="black" stroke-width="6"/>
<path d="M17.5 64.1667L70 46.6667L122.5 64.1667" stroke="black" stroke-width="6"/>
<path d="M70 11.6667V125.417" stroke="black" stroke-width="6"/>
</svg>
