<svg width="32" height="32" viewBox="0 0 32 32" fill="none" xmlns="http://www.w3.org/2000/svg">
<path d="M16 32C24.8366 32 32 24.8366 32 16C32 7.16344 24.8366 0 16 0C7.16344 0 0 7.16344 0 16C0 24.8366 7.16344 32 16 32Z" fill="black"/>
<path fill-rule="evenodd" clip-rule="evenodd" d="M7.57324 16.0288C12.1545 13.9214 15.2094 12.532 16.738 11.8607C21.1022 9.94414 22.0091 9.61121 22.6002 9.60021C22.7302 9.5978 23.0208 9.63181 23.2091 9.79313C23.3681 9.92933 23.4119 10.1133 23.4328 10.2425C23.4537 10.3716 23.4798 10.6658 23.4591 10.8957C23.2226 13.5194 22.1992 19.8863 21.6786 22.8249C21.4583 24.0683 21.0246 24.4852 20.6046 24.526C19.692 24.6147 18.999 23.8892 18.1151 23.2775C16.732 22.3202 15.9506 21.7243 14.608 20.7901C13.0564 19.7106 14.0623 19.1172 14.9465 18.1476C15.1779 17.8938 19.1989 14.0322 19.2767 13.6819C19.2865 13.6381 19.2955 13.4748 19.2036 13.3885C19.1117 13.3023 18.9761 13.3318 18.8782 13.3552C18.7395 13.3885 16.5299 14.9305 12.2495 17.9812C11.6223 18.4359 11.0542 18.6575 10.5452 18.6459C9.98412 18.6331 8.90476 18.3109 8.10237 18.0355C7.11821 17.6977 6.33602 17.5192 6.40413 16.9455C6.43961 16.6467 6.82931 16.3412 7.57324 16.0288Z" fill="white"/>
</svg>
